<svg width="600" height="191" viewBox="0 0 600 191" fill="none" xmlns="http://www.w3.org/2000/svg">
<g clip-path="url(#clip0_84_3)">
<path d="M112.94 75.2812L108.725 94.8847L266.232 95.0079L270.448 75.4045L112.94 75.2812Z" fill="#E4032E"/>
<path d="M240.175 32.248H144.44L140.225 51.8515H236.164L240.175 32.248Z" fill="#164194"/>
<path fill-rule="evenodd" clip-rule="evenodd" d="M239.36 32.9082H144.972L141.041 51.1858H235.62L239.36 32.9082Z" fill="#FBFBFB"/>
<path d="M147.319 47.4616C147.196 48.031 146.864 48.3157 146.321 48.3115C145.777 48.3115 145.568 48.0225 145.692 47.4531L147.952 36.9905C148.016 36.6931 148.135 36.4636 148.305 36.3063C148.475 36.1449 148.683 36.0684 148.93 36.0684L152.635 36.0811C154.289 36.0854 155.44 36.3233 156.082 36.7908C156.728 37.2583 156.936 38.0019 156.715 39.0303C156.49 40.08 155.993 40.8789 155.228 41.4186C154.463 41.9626 153.468 42.2303 152.24 42.226L148.458 42.2133L147.323 47.4658L147.319 47.4616ZM151.641 40.6622C152.946 40.6622 153.808 40.5644 154.229 40.3562C154.645 40.1692 154.917 39.7698 155.053 39.1493C155.143 38.7286 155.126 38.4141 155.007 38.2017C154.883 37.9892 154.616 37.8447 154.208 37.764C153.8 37.6832 153.158 37.6407 152.295 37.6365L149.444 37.628L148.79 40.6537L151.641 40.6622Z" fill="#164194"/>
<path d="M167.352 43.865C167.152 44.7786 166.778 45.5818 166.221 46.266C165.665 46.9502 164.968 47.4771 164.131 47.8468C163.293 48.2166 162.371 48.3993 161.364 48.395C160.357 48.395 159.511 48.2038 158.836 47.8298C158.16 47.4559 157.693 46.9247 157.433 46.2362C157.174 45.5478 157.144 44.7489 157.34 43.831L158.045 40.5673C158.245 39.6536 158.619 38.8504 159.176 38.1662C159.732 37.482 160.429 36.9551 161.262 36.5854C162.099 36.2157 163.022 36.0329 164.029 36.0372C165.036 36.0372 165.882 36.2284 166.557 36.6024C167.233 36.9763 167.7 37.5075 167.96 38.196C168.219 38.8844 168.249 39.6833 168.053 40.6013L167.348 43.865H167.352ZM163.697 37.5968C162.597 37.5968 161.704 37.8518 161.016 38.366C160.327 38.8844 159.877 39.6366 159.664 40.6268L158.984 43.78C158.772 44.7701 158.895 45.5266 159.358 46.045C159.822 46.5677 160.603 46.8269 161.7 46.8312C162.801 46.8312 163.693 46.5762 164.381 46.0578C165.07 45.5393 165.52 44.7871 165.733 43.797L166.413 40.6438C166.617 39.6918 166.502 38.9354 166.068 38.3787C165.597 37.856 164.806 37.5968 163.697 37.5925V37.5968Z" fill="#164194"/>
<path d="M173.817 48.2707C172.55 48.2707 171.581 48.1517 170.914 47.9264C170.243 47.7012 169.801 47.3357 169.588 46.8258C169.376 46.3201 169.363 45.6189 169.558 44.7265L170.634 39.7544C170.825 38.8748 171.122 38.1863 171.539 37.6806C171.951 37.1749 172.525 36.8095 173.251 36.58C173.978 36.3547 174.921 36.24 176.069 36.2443L179.154 36.2528C179.915 36.2528 180.442 36.444 180.731 36.8137C181.02 37.1877 181.079 37.7614 180.909 38.539C180.76 39.2317 180.412 39.5759 179.872 39.5759C179.613 39.5759 179.43 39.4867 179.328 39.3125C179.222 39.1382 179.205 38.896 179.273 38.59C179.341 38.2798 179.333 38.0758 179.252 37.9696C179.171 37.8634 178.98 37.8124 178.682 37.8081L175.733 37.7996C174.841 37.7996 174.178 37.8421 173.74 37.9441C173.307 38.0418 172.979 38.2288 172.767 38.505C172.55 38.7813 172.38 39.2147 172.257 39.7927L171.199 44.6882C171.071 45.2832 171.059 45.7166 171.161 45.9886C171.263 46.2606 171.539 46.4476 171.981 46.5496C172.427 46.6473 173.149 46.7025 174.161 46.7025L176.757 46.711C177.055 46.711 177.267 46.66 177.395 46.5538C177.522 46.4476 177.616 46.2393 177.684 45.9334C177.752 45.6231 177.875 45.3852 178.053 45.2109C178.232 45.0367 178.453 44.9517 178.712 44.956C179.252 44.9687 179.447 45.3214 179.299 46.0141C179.133 46.7833 178.827 47.3485 178.376 47.7182C177.926 48.0879 177.322 48.2707 176.558 48.2707L173.825 48.2622L173.817 48.2707Z" fill="#164194"/>
<path d="M186.047 48.3117C184.781 48.3117 183.812 48.1927 183.14 47.9674C182.473 47.7422 182.027 47.3768 181.814 46.8668C181.602 46.3568 181.589 45.6599 181.78 44.7675L182.856 39.7954C183.047 38.9158 183.344 38.2273 183.761 37.7174C184.173 37.2117 184.747 36.8462 185.473 36.621C186.2 36.3958 187.139 36.281 188.291 36.2853L191.376 36.2938C192.141 36.2938 192.664 36.485 192.953 36.8547C193.242 37.2287 193.301 37.8024 193.131 38.5801C192.982 39.2727 192.634 39.617 192.09 39.617C191.831 39.617 191.648 39.5277 191.546 39.3535C191.44 39.1793 191.423 38.937 191.487 38.6311C191.555 38.3208 191.546 38.1169 191.465 38.0106C191.385 37.9044 191.193 37.8534 190.896 37.8491L187.947 37.8406C187.054 37.8406 186.391 37.8831 185.958 37.9809C185.524 38.0786 185.197 38.2656 184.98 38.5461C184.764 38.8223 184.594 39.2557 184.47 39.8337L183.412 44.7335C183.285 45.3284 183.272 45.7619 183.374 46.0339C183.476 46.3059 183.752 46.4928 184.194 46.5948C184.64 46.6968 185.363 46.7478 186.374 46.7521L188.975 46.7606C189.272 46.7606 189.485 46.7096 189.608 46.6033C189.736 46.4971 189.829 46.2931 189.897 45.9829C189.965 45.6727 190.088 45.4347 190.267 45.2604C190.445 45.0862 190.666 45.0012 190.926 45.0012C191.465 45.014 191.661 45.3709 191.512 46.0594C191.346 46.8286 191.04 47.3938 190.59 47.7635C190.139 48.1332 189.536 48.3159 188.771 48.3159L186.039 48.3074L186.047 48.3117Z" fill="#164194"/>
<path d="M193.683 47.5745L195.948 37.0908C196.08 36.4873 196.415 36.1813 196.959 36.1856C197.503 36.1856 197.703 36.5086 197.567 37.1545L195.723 45.6877L204.443 36.6743C204.757 36.3683 205.067 36.2111 205.378 36.2111C205.896 36.2111 206.087 36.5171 205.956 37.1248L203.691 47.6085C203.563 48.2035 203.227 48.4967 202.683 48.4967C202.139 48.4967 201.927 48.2162 202.05 47.6595L203.916 39.0158L195.289 47.957C195.089 48.1652 194.924 48.3055 194.792 48.3735C194.66 48.4415 194.494 48.4755 194.286 48.4755C193.755 48.4755 193.555 48.178 193.683 47.583V47.5745Z" fill="#164194"/>
<path d="M214.237 47.6806L215.219 43.1335L212.482 43.125C211.887 43.125 211.424 43.2185 211.093 43.4098C210.761 43.601 210.481 43.924 210.251 44.3829L209.393 46.1083C209.015 46.8349 208.53 47.4214 207.94 47.8591C207.349 48.2968 206.741 48.5135 206.121 48.5135C205.449 48.5135 205.169 48.2501 205.279 47.7316C205.39 47.2259 205.781 46.9709 206.452 46.9752C206.686 46.9752 206.928 46.8689 207.183 46.6522C207.438 46.4355 207.621 46.2188 207.731 45.9935L208.683 44.1024C208.989 43.533 209.38 43.057 209.865 42.6788C208.679 42.1179 208.237 41.1405 208.539 39.7423C208.772 38.6544 209.363 37.8215 210.302 37.2436C211.241 36.6656 212.47 36.3767 213.982 36.3809L217.552 36.3937C218.071 36.3937 218.258 36.7124 218.122 37.3413L215.886 47.6934C215.763 48.2628 215.436 48.5475 214.909 48.5433C214.339 48.5433 214.118 48.2543 214.242 47.6849L214.237 47.6806ZM216.341 37.9405L213.647 37.932C212.584 37.932 211.781 38.0765 211.233 38.3697C210.685 38.6672 210.336 39.1389 210.196 39.7976C209.941 40.9705 210.829 41.5612 212.861 41.5697L215.555 41.5782L216.341 37.9405Z" fill="#164194"/>
<path d="M223.004 43.7719C222.906 43.653 222.881 43.4957 222.923 43.3002C222.97 43.092 223.063 42.9305 223.212 42.82C223.361 42.7095 223.535 42.6543 223.743 42.6543L230.938 42.6755C231.159 42.6755 231.312 42.7308 231.405 42.8455C231.499 42.956 231.52 43.1175 231.473 43.33C231.427 43.5425 231.333 43.6997 231.193 43.8102C231.053 43.9207 230.87 43.9759 230.653 43.9759L223.459 43.9547C223.25 43.9547 223.097 43.8952 223.004 43.7762V43.7719Z" fill="#164194"/>
<path d="M157.712 53.7598L153.458 73.5587H231.375L235.628 53.7598H157.712Z" fill="#164194"/>
<path d="M164.109 69.7085C162.843 69.7085 161.874 69.5895 161.207 69.3643C160.54 69.139 160.098 68.7736 159.885 68.2636C159.673 67.7537 159.66 67.0567 159.855 66.1643L160.926 61.1923C161.117 60.3126 161.419 59.6242 161.831 59.1142C162.244 58.6085 162.813 58.243 163.54 58.0136C164.266 57.7883 165.206 57.6736 166.357 57.6778L169.438 57.6863C170.199 57.6863 170.726 57.8776 171.015 58.2473C171.304 58.6213 171.363 59.195 171.193 59.9726C171.045 60.6653 170.696 61.0095 170.156 61.0095C169.897 61.0095 169.719 60.9203 169.612 60.7461C169.506 60.5718 169.489 60.3296 169.557 60.0236C169.625 59.7134 169.617 59.5052 169.536 59.4032C169.455 59.297 169.268 59.246 168.971 59.2417L166.026 59.2332C165.133 59.2332 164.47 59.2757 164.037 59.3734C163.603 59.4712 163.276 59.6582 163.064 59.9344C162.847 60.2106 162.677 60.6441 162.554 61.222L161.496 66.1176C161.368 66.7125 161.355 67.146 161.457 67.418C161.559 67.6899 161.831 67.8769 162.278 67.9789C162.72 68.0809 163.446 68.1319 164.453 68.1361L167.05 68.1446C167.347 68.1446 167.56 68.0936 167.683 67.9874C167.811 67.8812 167.904 67.6772 167.972 67.367C168.04 67.0567 168.163 66.8145 168.342 66.6445C168.52 66.4703 168.741 66.3853 169 66.3853C169.54 66.398 169.736 66.7508 169.587 67.4477C169.421 68.2126 169.115 68.7821 168.665 69.1518C168.219 69.5215 167.611 69.7042 166.85 69.7042L164.118 69.6957L164.109 69.7085Z" fill="#FBFBFB"/>
<path d="M181.39 57.7348C182.023 57.7348 182.282 57.9983 182.171 58.5168C182.061 59.0352 181.687 59.2944 181.054 59.2902L178.3 59.2817L176.197 69.0218C176.141 69.2683 176.01 69.4722 175.801 69.6337C175.593 69.7952 175.347 69.8717 175.062 69.8717C174.777 69.8717 174.573 69.7952 174.45 69.6465C174.327 69.4977 174.297 69.2853 174.352 69.0133L176.456 59.2732L173.664 59.2647C173.366 59.2647 173.15 59.1924 173.014 59.048C172.878 58.9035 172.835 58.7165 172.886 58.4828C172.937 58.249 173.06 58.0578 173.26 57.9176C173.46 57.7773 173.706 57.7051 174.004 57.7051L181.394 57.7306L181.39 57.7348Z" fill="#FBFBFB"/>
<path d="M183.452 69.0418C183.329 69.6112 182.997 69.8917 182.453 69.8917C181.909 69.8917 181.701 69.6027 181.824 69.0333L184.085 58.5708C184.149 58.2733 184.268 58.0438 184.438 57.8866C184.608 57.7251 184.816 57.6443 185.063 57.6486L188.768 57.6613C190.421 57.6656 191.573 57.9036 192.215 58.371C192.861 58.8385 193.069 59.5822 192.848 60.6106C192.618 61.6602 192.125 62.4592 191.361 62.9989C190.596 63.5428 189.601 63.8105 188.373 63.8063L184.591 63.7935L183.456 69.0461L183.452 69.0418ZM187.774 62.2424C189.078 62.2424 189.941 62.1447 190.362 61.9365C190.778 61.7537 191.05 61.35 191.186 60.7338C191.276 60.3131 191.263 59.9986 191.14 59.7862C191.016 59.5737 190.753 59.4292 190.341 59.3484C189.933 59.2677 189.291 59.2252 188.428 59.221L185.577 59.2125L184.922 62.2382L187.774 62.2467V62.2424Z" fill="#FBFBFB"/>
<path d="M206.539 69.0827C206.411 69.6776 206.076 69.9709 205.532 69.9709C204.988 69.9709 204.78 69.6691 204.911 69.0785L207.176 58.5947C207.308 57.987 207.631 57.6852 208.15 57.6895C208.719 57.6895 208.936 57.9955 208.804 58.5989L207.941 62.5893L214.69 62.6105L215.552 58.6244C215.684 58.0167 216.02 57.715 216.564 57.715C217.108 57.715 217.312 58.021 217.18 58.6244L214.915 69.1082C214.787 69.6989 214.452 69.9964 213.908 69.9964C213.364 69.9964 213.156 69.6989 213.287 69.104L214.354 64.1702L207.606 64.1489L206.539 69.0827Z" fill="#FBFBFB"/>
<path d="M225.816 58.6991L227.873 69.0809C227.886 69.2041 227.873 69.3614 227.831 69.5441C227.793 69.7183 227.678 69.8713 227.487 70.0073C227.295 70.1433 227.091 70.2113 226.87 70.2113C226.471 70.2113 226.233 70.0115 226.165 69.6163L225.561 66.4036L220.326 66.3866L218.333 69.5908C218.065 69.986 217.746 70.1815 217.372 70.1815C217.152 70.1815 216.977 70.1135 216.846 69.9733C216.714 69.8373 216.667 69.6801 216.705 69.5101C216.744 69.3231 216.799 69.1701 216.863 69.0469C219.055 65.5749 221.244 62.103 223.437 58.6353C223.908 57.8874 224.159 57.8789 224.771 57.8789C224.92 57.8789 224.733 57.8789 224.882 57.8789C225.464 57.9002 225.646 57.8152 225.825 58.7033L225.816 58.6991ZM224.257 60.2162L221.32 64.827L225.239 64.8398L224.257 60.2119V60.2162Z" fill="#FBFBFB"/>
<path d="M200.949 58.6229L203.006 69.0047C203.019 69.1279 203.006 69.2852 202.964 69.4679C202.925 69.6422 202.811 69.7951 202.619 69.9311C202.428 70.0671 202.224 70.1351 202.003 70.1351C201.604 70.1351 201.366 69.9354 201.298 69.5402L200.694 66.3275L195.459 66.3105L193.466 69.5147C193.198 69.9099 192.879 70.1054 192.505 70.1054C192.284 70.1054 192.11 70.0374 191.978 69.8971C191.847 69.7611 191.8 69.6039 191.838 69.4339C191.876 69.2469 191.932 69.094 191.995 68.9707C194.188 65.4988 196.377 62.0268 198.569 58.5592C199.041 57.8112 199.292 57.8027 199.904 57.8027C200.053 57.8027 199.866 57.8027 200.014 57.8027C200.597 57.824 200.779 57.739 200.958 58.6272L200.949 58.6229ZM199.39 60.1358L196.453 64.7508L200.371 64.7636L199.39 60.1358Z" fill="#FBFBFB"/>
<path d="M116.162 80.1352C116.226 79.8377 116.345 79.6083 116.515 79.451C116.685 79.2895 116.893 79.2088 117.14 79.2131L120.786 79.2258C121.937 79.2258 122.834 79.3363 123.48 79.5488C124.126 79.7613 124.564 80.0927 124.789 80.5474C125.014 80.9979 125.048 81.5971 124.887 82.3408C124.704 83.1949 124.326 83.8536 123.761 84.3253C124.649 84.8863 124.933 85.9062 124.61 87.3893L124.534 87.742C124.343 88.6302 124.028 89.3314 123.595 89.8371C123.161 90.3428 122.562 90.7082 121.797 90.925C121.032 91.146 120.021 91.2522 118.767 91.2479L114.539 91.2352C114.292 91.2352 114.118 91.1545 114.02 90.993C113.918 90.8315 113.901 90.602 113.965 90.3045L116.162 80.1395V80.1352ZM116.647 85.4472L115.733 89.6756L119.107 89.6841C120.102 89.6841 120.841 89.6416 121.321 89.5439C121.802 89.4461 122.154 89.2676 122.379 88.9999C122.605 88.7364 122.779 88.3115 122.906 87.7293L122.97 87.4318C123.098 86.8496 123.11 86.4289 123.013 86.1612C122.915 85.8934 122.668 85.7107 122.277 85.613C121.886 85.5152 121.249 85.46 120.369 85.46L116.647 85.4472ZM119.774 83.8961C120.641 83.8961 121.304 83.8579 121.759 83.7729C122.218 83.6879 122.558 83.5392 122.775 83.3309C122.996 83.1227 123.149 82.804 123.242 82.3833C123.331 81.9626 123.314 81.6523 123.183 81.4441C123.051 81.2401 122.775 81.0914 122.354 81.0064C121.933 80.9171 121.287 80.8746 120.425 80.8704L117.633 80.8619L116.978 83.8876L119.77 83.8961H119.774Z" fill="#FBFBFB"/>
<path d="M136.828 86.9216C136.628 87.8353 136.254 88.6384 135.698 89.3226C135.141 90.0068 134.448 90.5338 133.611 90.9035C132.774 91.2732 131.852 91.4559 130.845 91.4517C129.837 91.4517 128.992 91.2605 128.316 90.8865C127.64 90.5125 127.173 89.9813 126.914 89.2929C126.655 88.6045 126.625 87.8055 126.82 86.8876L127.526 83.6239C127.725 82.7102 128.099 81.9071 128.656 81.2229C129.213 80.5387 129.905 80.0117 130.743 79.642C131.58 79.2723 132.502 79.0896 133.509 79.0938C134.516 79.0938 135.358 79.2851 136.038 79.659C136.713 80.033 137.181 80.5642 137.44 81.2526C137.699 81.9411 137.729 82.74 137.534 83.6579L136.828 86.9216ZM133.173 80.6534C132.073 80.6534 131.18 80.9084 130.492 81.4226C129.803 81.9411 129.353 82.6932 129.141 83.6834L128.461 86.8366C128.248 87.8268 128.371 88.5832 128.835 89.1017C129.298 89.6244 130.08 89.8878 131.176 89.8878C132.277 89.8878 133.169 89.6329 133.858 89.1144C134.546 88.596 134.997 87.8438 135.209 86.8536L135.889 83.7004C136.097 82.7485 135.978 81.9921 135.545 81.4354C135.073 80.9127 134.283 80.6534 133.173 80.6492V80.6534Z" fill="#FBFBFB"/>
<path d="M145.472 84.3536C146.194 84.3536 146.802 84.2049 147.295 83.9032C147.788 83.6015 148.085 83.202 148.192 82.709C148.311 82.1651 148.175 81.7231 147.788 81.3789C147.401 81.0347 146.853 80.8647 146.143 80.8647L142.595 80.852C142.285 80.852 142.072 80.8987 141.953 81.0007C141.834 81.0984 141.741 81.3152 141.668 81.6509L141.596 81.9866C141.46 82.6198 141.12 82.93 140.576 82.93C140.032 82.93 139.828 82.6113 139.964 81.9824C140.177 80.9922 140.496 80.2995 140.921 79.8958C141.341 79.4963 141.97 79.2966 142.795 79.3008L146.615 79.3136C147.388 79.3136 148.047 79.4538 148.583 79.7301C149.118 80.0063 149.496 80.3887 149.721 80.886C149.942 81.3832 149.985 81.9526 149.849 82.5943C149.615 83.6822 149.016 84.5406 148.051 85.1696C148.727 85.8792 148.944 86.7887 148.706 87.9021C148.566 88.5565 148.268 89.1472 147.818 89.6699C147.367 90.1968 146.81 90.6048 146.143 90.898C145.476 91.1913 144.771 91.34 144.018 91.3357L140.198 91.323C139.369 91.323 138.834 91.119 138.583 90.7153C138.333 90.3116 138.316 89.6147 138.528 88.6287C138.664 87.9998 139.004 87.6811 139.548 87.6853C140.092 87.6853 140.296 88.004 140.16 88.633L140.088 88.9645C140.015 89.3002 140.015 89.5169 140.092 89.6147C140.168 89.7124 140.36 89.7634 140.67 89.7634L144.218 89.7761C144.915 89.7761 145.54 89.5849 146.092 89.1982C146.641 88.8115 146.976 88.3313 147.099 87.7618C147.218 87.2179 147.091 86.7759 146.725 86.4317C146.36 86.0917 145.829 85.9175 145.128 85.9175H143.458C142.786 85.909 142.506 85.6498 142.616 85.1313C142.727 84.6129 143.122 84.3536 143.793 84.3536H145.459H145.472Z" fill="#FBFBFB"/>
<path d="M157.613 85.9346C157.396 86.1088 157.171 86.1938 156.937 86.1938C156.69 86.1938 156.495 86.1045 156.355 85.9303L154.277 81.8974L152.411 90.5411C152.275 91.1701 151.935 91.4845 151.391 91.4845C150.847 91.4845 150.639 91.1871 150.771 90.5921L153.036 80.1083C153.168 79.5049 153.49 79.1989 154.009 79.2032C154.332 79.2032 154.574 79.3647 154.74 79.6876L157.29 84.5024L161.939 79.6919C162.253 79.3859 162.555 79.2287 162.852 79.2329C163.384 79.2329 163.583 79.5389 163.452 80.1423L161.187 90.6219C161.059 91.2168 160.723 91.51 160.179 91.51C159.635 91.51 159.431 91.1913 159.567 90.5624L161.437 81.9187L157.621 85.9346H157.613Z" fill="#FBFBFB"/>
<path d="M174.604 87.0482C174.405 87.9661 174.031 88.7651 173.474 89.4492C172.917 90.1334 172.22 90.6604 171.388 91.0301C170.55 91.3998 169.628 91.5825 168.621 91.5783C167.614 91.5783 166.768 91.3871 166.092 91.0131C165.417 90.6391 164.949 90.1079 164.69 89.4237C164.431 88.7353 164.401 87.9364 164.597 87.0185L165.302 83.7548C165.502 82.8411 165.876 82.0379 166.432 81.3537C166.989 80.6696 167.686 80.1426 168.523 79.7729C169.36 79.4032 170.283 79.2204 171.29 79.2247C172.297 79.2247 173.143 79.4159 173.818 79.7899C174.494 80.1638 174.961 80.695 175.221 81.3792C175.48 82.0677 175.51 82.8708 175.314 83.7845L174.609 87.0482H174.604ZM170.95 80.78C169.849 80.78 168.957 81.035 168.268 81.5535C167.58 82.0719 167.129 82.8241 166.917 83.8143L166.237 86.9675C166.024 87.9576 166.148 88.7098 166.611 89.2325C167.074 89.7552 167.856 90.0144 168.957 90.0187C170.053 90.0187 170.95 89.7637 171.634 89.2453C172.322 88.7268 172.773 87.9746 172.985 86.9845L173.665 83.8313C173.869 82.8793 173.755 82.1229 173.321 81.5662C172.849 81.0435 172.059 80.78 170.95 80.78Z" fill="#FBFBFB"/>
<path d="M184.597 86.6344L183.709 90.7353C183.658 90.9818 183.526 91.1858 183.326 91.3473C183.122 91.5088 182.893 91.5852 182.633 91.5852C182.387 91.5852 182.208 91.5045 182.094 91.343C181.979 91.1815 181.949 90.9775 182.004 90.7311L182.888 86.6302H182.752C182.183 86.6302 181.669 86.7704 181.206 87.0509C180.742 87.3356 180.364 87.7478 180.062 88.2918C179.875 88.6148 179.612 89.095 179.268 89.7367C178.936 90.3189 178.524 90.7693 178.035 91.088C177.547 91.4068 177.007 91.5682 176.429 91.564C176.119 91.564 175.889 91.4918 175.736 91.3473C175.588 91.207 175.537 91.0158 175.588 90.7821C175.698 90.2636 176.093 90.0044 176.765 90.0044C176.828 90.0044 176.905 89.9619 176.998 89.8727C177.088 89.7877 177.177 89.6644 177.262 89.5029C177.576 88.9462 177.814 88.5 177.976 88.1686C178.231 87.6374 178.626 87.1147 179.149 86.5962C179.676 86.0777 180.241 85.6953 180.853 85.4488C180.628 85.1131 180.381 84.5819 180.113 83.851C179.816 83.069 179.557 82.4613 179.34 82.0279C179.132 81.6199 178.885 81.4032 178.609 81.3777C178.303 81.3649 178.074 81.2884 177.929 81.1524C177.785 81.0165 177.738 80.8252 177.793 80.5788C177.904 80.073 178.269 79.8181 178.889 79.8223C179.395 79.8223 179.858 79.9838 180.279 80.311C180.7 80.634 181.057 81.1057 181.35 81.7261C181.55 82.1724 181.771 82.6866 182.009 83.2688C182.221 83.8382 182.421 84.2717 182.604 84.5691C182.765 84.9049 182.935 85.0706 183.114 85.0706H183.228L184.159 80.7657C184.223 80.481 184.346 80.26 184.537 80.0985C184.728 79.9371 184.949 79.8606 185.209 79.8606C185.778 79.8606 185.995 80.1665 185.867 80.7742L184.937 85.0791H185.051C185.209 85.0791 185.455 84.9134 185.799 84.5819C186.063 84.3227 186.454 83.8892 186.972 83.2858C187.55 82.5931 188.047 82.0279 188.464 81.5817C188.885 81.1354 189.344 80.7487 189.841 80.4173C190.427 80.0475 190.963 79.8648 191.456 79.8648C191.766 79.8648 191.995 79.9371 192.148 80.0815C192.297 80.226 192.348 80.413 192.297 80.6467C192.246 80.8847 192.123 81.0675 191.923 81.2034C191.723 81.3394 191.464 81.4117 191.137 81.4244C190.835 81.4457 190.487 81.6709 190.1 82.0874C189.688 82.4953 189.169 83.0903 188.549 83.8849C187.988 84.5776 187.508 85.1046 187.117 85.4786C187.478 85.6528 187.792 85.8908 188.06 86.1882C188.324 86.4857 188.506 86.8087 188.6 87.1572C188.817 87.8371 188.927 88.5128 188.94 89.18C188.931 89.4647 188.953 89.6814 189.012 89.8302C189.072 89.9789 189.152 90.0554 189.254 90.0554C189.552 90.0554 189.781 90.1276 189.934 90.2721C190.091 90.4166 190.142 90.6036 190.096 90.8373C189.985 91.3558 189.577 91.615 188.88 91.6107C188.298 91.6107 187.831 91.4493 187.482 91.122C187.134 90.7991 186.93 90.3486 186.875 89.7664C186.845 89.5454 186.828 89.3754 186.828 89.265C186.756 88.7083 186.679 88.2705 186.598 87.9561C186.518 87.6416 186.369 87.3569 186.148 87.1104C185.825 86.8002 185.357 86.6429 184.733 86.6429H184.597V86.6344Z" fill="#FBFBFB"/>
<path d="M193.917 90.7292C193.789 91.3241 193.454 91.6174 192.91 91.6174C192.366 91.6174 192.158 91.3156 192.289 90.7249L194.554 80.2412C194.686 79.6377 195.009 79.3317 195.527 79.336C196.097 79.336 196.318 79.642 196.186 80.2496L195.324 84.2358L202.076 84.257L202.939 80.2666C203.071 79.6632 203.406 79.3572 203.95 79.3615C204.494 79.3615 204.698 79.6675 204.566 80.2709L202.301 90.7547C202.174 91.3496 201.838 91.6429 201.294 91.6429C200.75 91.6429 200.542 91.3411 200.67 90.7504L201.736 85.8166L194.988 85.7954L193.921 90.7292H193.917Z" fill="#FBFBFB"/>
<path d="M215.727 87.1791C215.531 88.0927 215.153 88.8959 214.596 89.5801C214.039 90.2643 213.342 90.7912 212.51 91.161C211.672 91.5307 210.75 91.7134 209.743 91.7092C208.736 91.7092 207.89 91.5179 207.215 91.144C206.539 90.77 206.071 90.2388 205.812 89.5546C205.553 88.8662 205.523 88.0672 205.719 87.1493L206.424 83.8856C206.624 82.972 206.998 82.1688 207.555 81.4846C208.111 80.8004 208.804 80.2735 209.641 79.9037C210.478 79.534 211.4 79.3513 212.408 79.3555C213.415 79.3555 214.256 79.5468 214.936 79.9207C215.612 80.2947 216.079 80.8259 216.338 81.5101C216.598 82.1985 216.627 83.0017 216.432 83.9154L215.727 87.1791ZM212.072 80.9109C210.971 80.9109 210.079 81.1659 209.39 81.6801C208.702 82.1985 208.251 82.9507 208.039 83.9409L207.359 87.0941C207.147 88.0842 207.27 88.8364 207.733 89.3591C208.196 89.8818 208.978 90.1411 210.075 90.1453C211.175 90.1453 212.068 89.8903 212.756 89.3719C213.444 88.8534 213.895 88.1012 214.107 87.1111L214.787 83.9579C214.996 83.006 214.881 82.2495 214.443 81.6928C213.971 81.1701 213.181 80.9066 212.072 80.9066V80.9109Z" fill="#FBFBFB"/>
<path d="M222.185 91.5853C220.918 91.5811 219.949 91.4663 219.278 91.2411C218.607 91.0159 218.165 90.6504 217.952 90.1405C217.74 89.6305 217.727 88.9336 217.918 88.0412L218.993 83.0691C219.184 82.1894 219.482 81.4968 219.898 80.9911C220.311 80.4854 220.884 80.1199 221.611 79.8904C222.338 79.6652 223.277 79.5547 224.428 79.5547L227.514 79.5632C228.274 79.5632 228.801 79.7544 229.09 80.1241C229.379 80.4981 229.439 81.0718 229.269 81.8495C229.12 82.5422 228.772 82.8864 228.232 82.8864C227.973 82.8864 227.79 82.7971 227.688 82.6229C227.582 82.4487 227.565 82.2064 227.633 81.8962C227.701 81.586 227.692 81.382 227.611 81.2758C227.531 81.1695 227.339 81.1185 227.046 81.1143L224.097 81.1058C223.205 81.1058 222.542 81.1525 222.104 81.2503C221.666 81.348 221.343 81.535 221.127 81.8155C220.91 82.0917 220.74 82.5209 220.617 83.1031L219.558 87.9987C219.431 88.5936 219.418 89.0271 219.52 89.299C219.622 89.571 219.898 89.758 220.34 89.86C220.787 89.962 221.513 90.013 222.52 90.0172L225.121 90.0257C225.419 90.0257 225.631 89.9747 225.754 89.8685C225.882 89.7622 225.975 89.5583 226.043 89.2481C226.111 88.9378 226.235 88.6998 226.413 88.5256C226.592 88.3514 226.813 88.2664 227.072 88.2664C227.611 88.2791 227.807 88.6319 227.658 89.3288C227.492 90.0937 227.187 90.6632 226.736 91.0329C226.286 91.4026 225.682 91.5853 224.917 91.5853L222.185 91.5768V91.5853Z" fill="#FBFBFB"/>
<path d="M239.469 79.6098C240.103 79.6098 240.362 79.8733 240.251 80.3918C240.137 80.9102 239.767 81.1694 239.134 81.1652L236.38 81.1567L234.276 90.8968C234.221 91.1433 234.094 91.3472 233.881 91.5087C233.673 91.6702 233.426 91.7467 233.142 91.7467C232.857 91.7467 232.653 91.6702 232.53 91.5215C232.407 91.3727 232.373 91.1603 232.432 90.8883L234.536 81.1482L231.744 81.1397C231.446 81.1397 231.229 81.0674 231.093 80.923C230.957 80.7827 230.915 80.5915 230.962 80.3578C231.013 80.1198 231.136 79.9328 231.336 79.7926C231.535 79.6523 231.782 79.5801 232.079 79.5801L239.469 79.6056V79.6098Z" fill="#FBFBFB"/>
<path d="M242.66 85.6722L241.708 90.0875L249.115 90.113C249.426 90.113 249.651 90.181 249.791 90.3213C249.931 90.4573 249.97 90.6612 249.91 90.9332C249.859 91.1669 249.736 91.3497 249.54 91.4814C249.345 91.6089 249.09 91.6726 248.78 91.6726L240.518 91.6471C240.272 91.6471 240.098 91.5664 240 91.4049C239.898 91.2434 239.881 91.014 239.945 90.7165L242.142 80.5514C242.206 80.2539 242.324 80.0245 242.494 79.863C242.664 79.7015 242.873 79.625 243.119 79.625L251.38 79.6505C251.691 79.6505 251.916 79.7185 252.056 79.8587C252.192 79.9947 252.235 80.1987 252.175 80.4707C252.124 80.7044 252.001 80.8871 251.805 81.0146C251.61 81.1464 251.355 81.2101 251.045 81.2059L243.633 81.1804L243 84.1126L248.023 84.1296C248.372 84.1296 248.627 84.1976 248.784 84.3378C248.941 84.4738 248.992 84.6778 248.933 84.9498C248.826 85.447 248.41 85.6892 247.688 85.6892L242.664 85.6722H242.66Z" fill="#FBFBFB"/>
<path d="M252.242 90.9234L254.507 80.4396C254.639 79.8361 254.974 79.5302 255.518 79.5344C256.062 79.5344 256.262 79.8574 256.126 80.5033L254.282 89.0365L263.002 80.0231C263.312 79.7129 263.627 79.5599 263.937 79.5599C264.455 79.5599 264.647 79.8659 264.515 80.4693L262.25 90.9489C262.122 91.5438 261.787 91.837 261.243 91.837C260.699 91.837 260.486 91.5566 260.609 90.9999L262.479 82.3562L253.853 91.2931C253.653 91.5056 253.487 91.6416 253.355 91.7095C253.224 91.7775 253.054 91.8115 252.85 91.8073C252.318 91.8073 252.119 91.5098 252.246 90.9149L252.242 90.9234ZM258.68 79.6152C257.915 79.6152 257.592 79.4282 257.363 79.0542C257.133 78.6802 257.184 78.4168 257.38 77.5116C257.431 77.2354 257.562 77.0484 257.868 77.0399C258.004 77.0399 258.14 77.0399 258.272 77.0399C258.604 77.0399 258.646 77.2354 258.599 77.4946C258.582 77.6008 258.57 77.7071 258.553 77.8133C258.493 78.0853 258.489 78.2553 258.54 78.3233C258.591 78.3913 258.752 78.4253 259.02 78.4253L260.635 78.4338C260.894 78.4338 261.064 78.3998 261.141 78.3318C261.221 78.2638 261.289 78.0938 261.349 77.8218C261.366 77.7113 261.379 77.6008 261.396 77.4903C261.4 77.2099 261.519 77.0484 261.778 77.0484C261.995 77.0484 262.207 77.0441 262.424 77.0399C262.802 77.0101 262.777 77.2226 262.743 77.5073C262.598 78.7015 262.224 79.6194 260.728 79.6152H258.676H258.68Z" fill="#FBFBFB"/>
</g>
<g clip-path="url(#clip1_84_3)">
<path d="M463.01 49.9369H463.9V46.1452H461.416C460.651 46.1452 459.688 46.2961 459.688 47.3377C459.688 48.0678 460.081 48.4086 460.718 48.5448L459.554 49.9369H460.622L461.684 48.6033H463.015V49.9369H463.01ZM454.644 49.9369L457.214 47.1382V49.9369H458.085V46.1452H457.18L454.61 48.9488V46.1452H453.739V49.9369H454.644ZM447.622 49.9369H448.508V48.3112H451.111V49.9369H452.002V46.1452H451.111V47.6298H448.508V46.1452H447.622V49.9369ZM442.295 49.9369H446.138V49.2506H443.156V48.2917H445.741V47.7174H443.156V46.8364H446.076V46.1452H442.295V49.9369ZM437.839 48.0192C437.858 47.6249 437.858 47.2258 437.858 46.8315H439.667V49.9369H440.557V46.1452H437.078V46.7926C437.078 47.2355 437.068 47.6103 437.054 47.9121C437.02 48.5546 436.944 49.3334 436.111 49.1971V49.9613C437.36 50.2144 437.786 49.1241 437.839 48.0192ZM430.721 49.9369H433.292C434.01 49.9369 434.914 49.825 434.914 48.8418C434.914 48.2285 434.483 47.99 433.976 47.9364V47.9218C434.393 47.8488 434.699 47.5908 434.699 47.109C434.699 46.2182 433.933 46.1452 433.273 46.1452H430.721V49.9369ZM431.593 49.2993V48.2431H433.067C433.426 48.2431 433.995 48.2285 433.995 48.759C433.995 49.2896 433.464 49.2993 433.081 49.2993H431.593ZM431.593 47.7223V46.778H433.033C433.335 46.778 433.813 46.778 433.813 47.2209C433.813 47.7028 433.397 47.7174 433.043 47.7174H431.593V47.7223ZM424.499 49.9369H425.404L425.854 49.017H428.031L428.481 49.9369H429.429L427.553 46.1452H426.375L424.504 49.9369H424.499ZM426.141 48.3794L426.94 46.7536L427.744 48.3794H426.141ZM419.986 49.9369H420.866V48.6568H422.283C423.13 48.6568 423.958 48.428 423.958 47.3572C423.958 46.3496 423.102 46.1452 422.336 46.1452H419.986V49.9369ZM420.861 48.0143V46.7877H422.154C422.537 46.7877 423.039 46.8413 423.039 47.3718C423.039 47.951 422.58 48.0094 422.139 48.0094H420.861V48.0143ZM414.051 49.9369H414.941V46.8315H417.363V49.9369H418.248V46.1452H414.051V49.9369ZM409.652 49.9905C410.355 49.9905 410.671 49.6741 411.03 49.0657L412.763 46.1452H411.82L410.643 48.1798L409.144 46.1452H408.072L410.159 48.9099C409.91 49.3285 409.532 49.3626 409.101 49.2506V49.9272C409.283 49.9759 409.47 49.9905 409.657 49.9905H409.652ZM404.109 49.9369H404.999V46.1452H402.515C401.75 46.1452 400.787 46.2961 400.787 47.3377C400.787 48.0678 401.18 48.4086 401.817 48.5448L400.653 49.9369H401.721L402.783 48.6033H404.114V49.9369H404.109ZM402.654 47.9997C402.223 47.9997 401.711 47.951 401.711 47.3718C401.721 46.8364 402.286 46.8169 402.659 46.8169H404.109V48.0046H402.654V47.9997ZM394.718 49.9369H395.623L396.073 49.017H398.251L398.701 49.9369H399.648L397.772 46.1452H396.595L394.723 49.9369H394.718ZM396.355 48.3794L397.155 46.7536L397.959 48.3794H396.355ZM390.286 48.3015H390.942L392.588 49.9369H393.766L391.66 47.9023L393.699 46.1452H392.569L390.88 47.6395H390.286V46.1452H389.396V49.9369H390.286V48.3015ZM385.687 50.0197C386.381 50.0197 387.39 49.8639 387.754 49.1241C387.869 48.8904 387.869 48.7687 387.898 48.5205H387.017C387.017 48.6519 386.993 48.7541 386.921 48.8661C386.682 49.2457 386.103 49.3382 385.71 49.3382C385.318 49.3382 384.825 49.275 384.509 48.9829C384.145 48.6422 384.078 47.9705 384.236 47.4886C384.351 47.1284 384.634 46.9386 384.959 46.8315C385.15 46.7682 385.39 46.739 385.677 46.739C386.007 46.739 386.376 46.7926 386.663 46.9873C386.869 47.1236 386.998 47.2891 386.998 47.5568H387.879C387.879 47.1138 387.673 46.7682 387.343 46.5151C386.874 46.1549 386.227 46.0527 385.667 46.0527C385.261 46.0527 384.902 46.1014 384.6 46.1939C384.078 46.3545 383.614 46.6563 383.384 47.2063C383.073 47.9559 383.226 48.9683 383.844 49.4842C384.346 49.9077 385.069 50.0197 385.691 50.0197H385.687ZM378.028 49.9369H378.909V48.6568H380.326C381.135 48.6568 382.001 48.4329 382.001 47.3913C382.001 46.3496 381.183 46.1452 380.378 46.1452H378.028V49.9369ZM378.909 48.0143V46.7877H380.201C380.584 46.7877 381.087 46.8413 381.087 47.3718C381.087 47.9559 380.618 48.0094 380.187 48.0094H378.909V48.0143ZM372.701 49.9369H376.545V49.2506H373.563V48.2917H376.147V47.7174H373.563V46.8364H376.482V46.1452H372.701V49.9369ZM368.805 49.9369H369.695V46.8315H371.371V46.1452H367.13V46.8315H368.805V49.932V49.9369ZM363.87 50.0197C364.426 50.0197 365.067 49.932 365.536 49.5913C365.885 49.3334 366.077 48.978 366.082 48.5205H365.206C365.206 48.7882 365.067 48.978 364.852 49.1095C364.574 49.2798 364.21 49.3382 363.894 49.3382C363.497 49.3382 363.009 49.275 362.693 48.9829C362.238 48.5594 362.2 47.5276 362.674 47.0944C362.985 46.8023 363.459 46.739 363.856 46.739C364.186 46.739 364.555 46.7926 364.842 46.9873C365.048 47.1236 365.177 47.2891 365.177 47.5568H366.058C366.058 47.1138 365.852 46.7682 365.522 46.5151C365.053 46.1549 364.406 46.0527 363.846 46.0527C363.224 46.0527 362.521 46.1647 362.018 46.5881C361.19 47.2793 361.2 48.7931 362.018 49.4842C362.521 49.9077 363.243 50.0197 363.866 50.0197H363.87ZM355.561 49.9369H356.466L356.916 49.017H359.094L359.543 49.9369H360.491L358.61 46.1452H357.433L355.561 49.9369ZM357.203 48.3794L358.002 46.7536L358.806 48.3794H357.203ZM350.023 49.9369V47.2647L350.009 46.9143H350.023L351.411 49.9369H352.043L353.431 46.9143H353.446L353.431 47.2647V49.932H354.259V46.1452H353.053L351.761 48.9586L350.478 46.1452H349.195V49.9369H350.023ZM461.555 47.9997C461.397 47.9997 461.258 47.99 461.144 47.9656C460.842 47.9121 460.612 47.7612 460.612 47.4059C460.612 46.8315 461.153 46.8169 461.56 46.8169H463.01V48.0046H461.555V47.9997Z" fill="#1D1D1B"/>
<path fill-rule="evenodd" clip-rule="evenodd" d="M460.677 64.5339L463.898 75.6024H459.011L456.388 66.9676H453.487V75.6024H448.854V66.9676H445.963L443.336 75.6024H438.449L441.67 64.5339L438.497 53.9619H443.35L445.92 62.3971H448.849V53.9619H453.483V62.3971H456.421L458.992 53.9619H463.84L460.662 64.5339H460.677ZM367.433 53.9619H349.059V75.6024H355.917V79.36H360.551V75.6024H367.429V67.211H362.795V70.9686H353.692V58.4594H362.795V62.217H367.429V53.9619H367.433ZM434.308 53.9619V58.3182H422.333V62.3971H432.528V66.9676L422.333 66.8946V71.1049H434.308V75.6024H417.7V53.9619H434.308ZM389.57 53.9619V58.3182H377.595V62.3971H387.79V66.9676L377.595 66.8946V71.1049H389.57V75.6024H372.962V53.9619H389.57ZM399.186 53.9619V62.3971H407.749V53.9619H412.382V75.6024H407.749V66.9676H399.186V75.6024H394.553V53.9619H399.186Z" fill="#E4032E"/>
</g>
<defs>
<clipPath id="clip0_84_3">
<rect width="161.723" height="62.7625" fill="white" transform="translate(108.725 32.25)"/>
</clipPath>
<clipPath id="clip1_84_3">
<rect width="114.839" height="33.3027" fill="white" transform="translate(349.059 46.0527)"/>
</clipPath>
</defs>
</svg>
